<svg width="500" height="500" version="1.1" xmlns="http://www.w3.org/2000/svg"><path fill="rgb(3,3,3)" stroke="rgb(3,3,3)" stroke-width="1" opacity="0.984313725490196" d="M 132 133 L 187.5 133 L 200.5 137 L 209 144.5 Q 215.6 151.9 215 166.5 Q 212.7 178.2 205 184.5 Q 217.5 189.5 225.5 199 L 228 193 L 234 191 L 231 185.5 L 231 180.5 Q 232.3 176.3 237 177 L 236 183.5 L 240.5 189 Q 243.5 186 242 178.5 L 241.5 177 L 247 180.5 Q 247.7 186.7 243.5 188 L 241 189.5 L 246.5 196 L 247 189 L 253 189.5 L 251 191.5 L 250 199.5 L 253 203.5 L 252 206 Q 247.5 206.8 245.5 204 L 244 204.5 L 245 202.5 L 244 200 Q 241.3 201.1 242 198.5 L 234 191.5 Q 231.5 195 233 202.5 L 234 205 L 236 205.5 L 231 206.5 L 238 222.5 L 239 231.5 L 216 276.5 L 216 279 Q 203.3 288.5 179.5 288 Q 156.8 284.2 145 269.5 L 135 252.5 L 132 235.5 L 132 133 Z M 143 143 L 143 243 Q 145 253 151 261 L 166 273 L 173 276 L 184 278 Q 204 278 215 267 L 225 254 L 229 238 L 228 225 L 226 219 L 216 203 L 204 195 L 190 191 L 186 191 L 186 181 L 196 179 Q 203 175 205 166 L 205 160 L 200 150 L 189 143 L 143 143 Z "></path><path fill="rgb(3,3,3)" stroke="rgb(3,3,3)" stroke-width="1" opacity="0.984313725490196" d="M 157 154 L 166.5 154 L 167 154.5 L 167 239.5 Q 169.6 246.9 175.5 251 L 186.5 254 L 191.5 253 L 200 247.5 Q 205 242.5 205 232.5 Q 203 222.5 195.5 218 Q 192.3 215 186 216 L 186 206 L 192.5 206 Q 203.4 208.6 209 216.5 Q 215.8 224.2 215 239.5 Q 212 251.5 203.5 258 Q 196.7 264.2 183.5 264 L 172.5 261 L 164 254.5 Q 158.8 249.7 157 241.5 L 157 154 Z "></path><path fill="rgb(3,3,3)" stroke="rgb(3,3,3)" stroke-width="1" opacity="0.984313725490196" d="M 115.5 302 Q 125.8 300.2 130 304.5 Q 131.9 309.9 128.5 309 Q 125.8 306.2 119.5 307 L 114 310.5 Q 111.4 313.4 112 319.5 L 114 325 L 122.5 328 L 129.5 325 L 130 331 Q 125.8 334 116.5 333 Q 110 331.5 107 326.5 Q 103.3 322.2 105 312.5 Q 106.6 305.6 112.5 303 L 115.5 302 Z "></path><path fill="rgb(3,3,3)" stroke="rgb(3,3,3)" stroke-width="1" opacity="0.984313725490196" d="M 145.5 302 Q 160.1 299.9 164 308.5 L 166 314.5 L 166 320.5 Q 164.9 327.9 159.5 331 Q 155.1 334.1 146.5 333 Q 140 331.5 137 326.5 Q 133.9 322.1 135 313.5 Q 136.8 306.3 142.5 303 L 145.5 302 Z M 149 307 L 147 308 L 143 313 Q 141 321 144 325 L 151 328 L 156 326 L 158 322 Q 160 314 157 311 Q 155 306 149 307 Z "></path><path fill="rgb(3,3,3)" stroke="rgb(3,3,3)" stroke-width="1" opacity="0.984313725490196" d="M 172 302 L 180.5 302 L 181 303.5 L 191.5 322 L 192 302 L 198.5 302 L 199 302.5 L 199 332 L 190.5 332 L 190 330.5 L 179.5 312 L 179 332 L 172.5 332 L 172 331.5 L 172 302 Z "></path><path fill="rgb(3,3,3)" stroke="rgb(3,3,3)" stroke-width="1" opacity="0.984313725490196" d="M 212.5 302 Q 222.2 300.9 227 303 L 227 308.5 L 225.5 309 Q 222.2 306.3 215.5 307 L 213 308 Q 212 311.8 214.5 313 L 228 317 Q 230 320 229 327.5 Q 225.6 334.6 213.5 333 L 206 331 L 206 325.5 L 207.5 325 L 217.5 328 L 222 325.5 Q 222.8 321.8 220.5 321 L 211.5 319 L 207 315.5 L 206 308.5 L 210.5 303 L 212.5 302 Z "></path><path fill="rgb(3,3,3)" stroke="rgb(3,3,3)" stroke-width="1" opacity="0.984313725490196" d="M 237 302 L 243.5 302 L 244 302.5 L 244 323.5 L 246.5 327 Q 252.5 328.5 254 325.5 L 255 323.5 L 255 302 Q 261.1 300.3 263 303.5 L 262 325.5 L 256.5 332 L 245.5 333 L 238 327.5 L 237 325.5 L 237 302 Z "></path><path fill="rgb(3,3,3)" stroke="rgb(3,3,3)" stroke-width="1" opacity="0.984313725490196" d="M 270 302 L 277.5 302 L 278 302.5 L 278 327 L 291 327 L 291 332 L 270 332 L 270 302 Z "></path><path fill="rgb(3,3,3)" stroke="rgb(3,3,3)" stroke-width="1" opacity="0.984313725490196" d="M 287.5 302 L 313.5 302 L 314 302.5 L 314 308 L 304 308 L 304 332 L 296 332 L 296 308 L 286 308 L 286 303.5 L 287.5 302 Z "></path><path fill="rgb(3,3,3)" stroke="rgb(3,3,3)" stroke-width="1" opacity="0.984313725490196" d="M 318 302 L 324.5 302 L 325 302.5 L 325 332 L 318.5 332 L 318 331.5 L 318 302 Z "></path><path fill="rgb(3,3,3)" stroke="rgb(3,3,3)" stroke-width="1" opacity="0.984313725490196" d="M 334 302 L 341.5 302 L 343 303.5 L 352.5 322 L 353 303.5 L 354.5 302 Q 359.9 301.4 360 302.5 L 360 332 L 352.5 332 L 351 330.5 L 341.5 313 L 341 332 L 334.5 332 L 334 331.5 L 334 302 Z "></path><path fill="rgb(0,0,0)" stroke="rgb(0,0,0)" stroke-width="1" opacity="0" d="M 0 0 L 500 0 L 500 500 L 0 500 L 0 0 Z M 132 132 L 132 243 L 134 253 L 138 260 Q 137 263 140 262 L 143 269 Q 151 278 163 284 L 171 287 L 182 289 L 190 289 L 201 287 L 215 280 L 215 283 L 220 286 L 257 286 L 259 285 L 271 262 L 272 260 L 312 260 L 322 280 L 323 284 L 328 286 L 364 286 L 366 285 L 369 280 L 341 223 L 338 220 L 332 221 L 329 225 L 329 229 L 331 234 L 351 272 L 351 273 L 334 273 L 322 250 L 318 246 L 267 246 L 265 247 L 261 251 L 250 273 L 232 273 L 251 235 Q 252 232 258 233 L 261 234 L 311 233 L 315 228 L 314 224 L 311 220 L 259 220 L 292 154 L 313 197 L 309 196 L 291 196 L 285 201 L 286 208 L 290 210 L 326 210 L 328 209 L 331 205 L 297 135 L 294 132 L 290 132 L 286 134 L 255 199 Q 253 204 250 199 L 253 192 L 253 190 L 257 190 L 257 188 L 247 188 L 247 194 L 242 190 L 244 189 L 248 184 L 247 180 L 243 176 L 235 176 L 231 178 L 230 181 L 231 190 L 233 190 L 230 191 L 226 197 L 216 189 L 207 185 L 214 174 L 216 166 L 216 160 L 214 152 L 208 141 L 195 133 L 136 133 L 132 132 Z M 117 301 L 110 304 L 104 312 L 104 323 L 108 330 L 118 334 Q 126 335 130 332 Q 133 330 131 324 L 125 327 L 118 326 L 113 320 Q 112 313 115 311 L 120 308 Q 126 307 129 310 L 131 310 L 131 303 L 125 301 L 117 301 Z M 147 301 L 140 304 L 134 314 Q 133 325 138 330 L 147 334 Q 155 335 160 332 L 166 325 L 166 311 L 164 308 Q 165 305 162 306 L 162 304 Q 157 300 147 301 Z M 174 301 L 173 302 L 171 303 L 171 332 L 173 333 L 180 333 L 181 315 L 188 331 L 191 333 L 200 333 L 200 333 L 200 303 Q 199 300 198 302 L 194 301 L 191 302 L 191 319 L 182 303 Q 181 300 180 302 Q 178 300 174 301 Z M 213 301 L 210 302 Q 204 305 206 316 L 212 320 L 221 322 L 222 325 L 218 327 L 214 327 L 208 324 L 206 325 L 206 332 L 214 334 Q 222 335 227 332 L 230 328 Q 231 321 229 318 L 224 314 L 216 313 L 214 312 L 216 308 Q 223 307 227 310 L 228 310 L 228 302 L 213 301 Z M 239 301 L 236 302 L 236 325 L 238 330 L 246 334 Q 254 335 259 332 L 263 325 L 263 303 Q 262 300 258 301 L 256 301 L 254 303 L 254 325 L 251 327 L 246 326 L 245 324 L 245 303 Q 244 300 239 301 Z M 273 301 L 270 302 L 270 333 L 292 333 L 292 326 L 278 326 L 278 301 L 276 302 L 273 301 Z M 311 301 L 310 302 L 286 302 L 286 309 L 296 309 L 296 310 L 296 333 L 304 333 L 304 309 L 315 309 L 314 307 L 315 303 Q 314 300 311 301 Z M 318 301 L 318 333 L 326 333 L 326 333 L 326 303 L 325 301 L 318 301 Z M 335 301 L 333 303 L 333 333 L 334 333 L 341 333 L 342 315 L 352 333 L 361 333 L 361 333 L 361 302 L 360 302 L 355 301 L 353 303 L 353 320 L 344 304 Q 342 299 341 302 Q 339 300 335 301 Z M 378 301 L 372 304 L 366 312 L 366 324 L 367 326 Q 371 332 379 334 L 388 334 L 396 331 L 396 315 L 383 315 L 382 319 L 383 321 L 383 322 L 387 322 L 387 326 L 385 327 L 379 325 L 376 323 L 375 319 L 377 310 L 382 308 Q 390 307 394 311 Q 397 309 395 303 Q 389 300 378 301 Z "></path><path fill="rgb(0,0,0)" stroke="rgb(0,0,0)" stroke-width="1" opacity="0" d="M 143 144 L 188.5 144 Q 198.1 145.9 202 153.5 L 204 159.5 L 204 165.5 Q 202.6 173.6 196.5 177 L 185 181 L 185 192 L 189.5 192 L 198.5 194 L 207.5 198 L 219 208.5 L 227 224.5 L 228 240.5 L 224 253.5 L 210.5 269 L 199.5 275 Q 193.4 274.4 190.5 277 L 180.5 277 Q 167.1 274.6 159 268 Q 160.1 265.3 157.5 266 L 147 252.5 L 143 237.5 L 143 144 Z M 156 153 L 156 241 L 158 248 L 161 252 L 163 255 L 173 262 L 185 265 L 186 264 L 197 263 L 209 255 L 214 246 L 216 238 Q 216 224 210 217 Q 204 207 192 205 L 185 205 L 185 216 Q 186 218 188 216 L 196 219 Q 202 224 204 232 L 204 239 L 200 247 L 188 253 L 180 252 L 176 250 Q 169 246 167 237 Q 166 232 168 231 L 168 192 L 167 191 L 167 154 L 167 153 L 156 153 Z "></path><path fill="rgb(0,0,0)" stroke="rgb(0,0,0)" stroke-width="1" opacity="0" d="M 238.5 178 L 241 178.5 L 241 187 Q 238.3 188.1 239 185.5 Q 236 184.5 237 179.5 L 238.5 178 Z "></path><path fill="rgb(0,0,0)" stroke="rgb(0,0,0)" stroke-width="1" opacity="0" d="M 234.5 192 L 244 202.5 Q 243.5 206.5 238.5 206 L 234 202.5 L 233 197.5 L 234.5 192 Z "></path><path fill="rgb(0,0,0)" stroke="rgb(0,0,0)" stroke-width="1" opacity="0" d="M 245.5 205 L 250 207.5 L 239.5 228 Q 238.3 215.3 232 207.5 L 242.5 207 L 245.5 205 Z "></path><path fill="rgb(0,0,0)" stroke="rgb(0,0,0)" stroke-width="1" opacity="0" d="M 148.5 308 L 152.5 308 L 156 310 L 158 315.5 L 158 319.5 L 152.5 327 L 148.5 327 L 144 322.5 L 143 316.5 L 146.5 309 L 148.5 308 Z "></path><path fill="rgb(222,80,203)" stroke="rgb(222,80,203)" stroke-width="1" opacity="0.7647058823529411" d="M 132.5 132 L 135 132.5 L 132.5 133 L 132.5 132 Z "></path><path fill="rgb(222,80,203)" stroke="rgb(222,80,203)" stroke-width="1" opacity="0.7647058823529411" d="M 289.5 132 Q 295.3 131.2 297 134.5 L 331 204.5 L 327.5 209 L 325.5 210 L 289.5 210 L 286 207.5 L 285 200.5 L 290.5 196 L 308.5 196 L 313 197 L 291.5 154 L 259 220 L 310.5 220 L 314 223.5 L 315 227.5 L 310.5 233 L 260.5 234 L 257.5 233 Q 252.3 231.8 251 234.5 L 232 272.5 L 249.5 273 L 261 250.5 L 264.5 247 L 266.5 246 L 317.5 246 L 322 249.5 L 333.5 273 L 350.5 273 L 351 271.5 L 331 233.5 L 329 228.5 L 329 224.5 L 331.5 221 L 337.5 220 L 341 222.5 L 369 279.5 L 365.5 285 L 363.5 286 L 327.5 286 L 323 284 L 322 279.5 L 311.5 260 L 271.5 260 L 271 261.5 L 258.5 285 L 256.5 286 L 219.5 286 L 215 282.5 L 214.5 280 Q 208.4 285.9 197.5 287 L 197.5 286 Q 209.2 284.5 216 279 L 216 276.5 L 239 231.5 L 239 228.5 L 238 223.5 L 239 223.5 L 239.5 228 L 250 207.5 L 245.5 205 L 242.5 207 L 231.5 207 L 231.5 206 L 236 205.5 L 234 205 L 233 199.5 L 234 199.5 Q 233.3 204.3 236.5 205 L 240.5 206 L 244 202.5 L 240 198.5 L 233.5 191 L 228 193 L 225.5 199 Q 217.5 189.5 205 184.5 Q 212.6 178.6 214.5 167 L 215 170.5 L 207 185 L 215.5 189 L 226 197 L 229.5 191 L 232 190.5 Q 229.3 187.2 230 180.5 L 231 178 L 234.5 176 L 242.5 176 L 247 179.5 L 244.5 178 L 241.5 177 L 242 178.5 Q 243.3 185.3 241 188.5 L 242.5 188 L 246 185.5 L 247.5 181 L 248 183.5 L 243.5 189 L 242 189.5 L 247 195.5 L 246 195.5 L 237 185.5 L 236 179.5 L 237 177 Q 232.3 176.3 231 180.5 L 232 187.5 L 242 200 Q 244.7 198.9 244 201.5 L 245 204 L 248.5 206 L 252 206 L 253 202.5 L 250.5 199 Q 252.8 203.3 255 198.5 L 286 134 L 289.5 132 Z M 239 178 Q 236 179 237 184 Q 238 186 240 184 L 239 186 Q 238 188 241 187 L 241 179 L 239 178 Z "></path><path fill="rgb(222,80,203)" stroke="rgb(222,80,203)" stroke-width="1" opacity="0.7647058823529411" d="M 188.5 133 L 194.5 133 L 208 141 L 214 151.5 L 215 157.5 L 214 157.5 Q 212.2 144.8 203.5 139 Q 198.5 134 188.5 134 L 188.5 133 Z "></path><path fill="rgb(222,80,203)" stroke="rgb(222,80,203)" stroke-width="1" opacity="0.7647058823529411" d="M 143.5 143 L 188.5 143 L 194 145.5 L 192.5 146 L 188.5 144 L 143.5 144 L 143.5 143 Z "></path><path fill="rgb(222,80,203)" stroke="rgb(222,80,203)" stroke-width="1" opacity="0.7647058823529411" d="M 195.5 146 L 200 149.5 L 202 152.5 L 195.5 146 Z "></path><path fill="rgb(222,80,203)" stroke="rgb(222,80,203)" stroke-width="1" opacity="0.7647058823529411" d="M 156 153 L 167 153.5 L 157 154 L 156.5 241 L 156 153 Z "></path><path fill="rgb(222,80,203)" stroke="rgb(222,80,203)" stroke-width="1" opacity="0.7647058823529411" d="M 202.5 154 Q 205.9 157.6 205 165.5 L 202.5 171 L 202 169.5 Q 205 166.5 204 159.5 L 202.5 154 Z "></path><path fill="rgb(222,80,203)" stroke="rgb(222,80,203)" stroke-width="1" opacity="0.7647058823529411" d="M 215.5 159 L 216 165.5 L 215 165.5 L 215.5 159 Z "></path><path fill="rgb(222,80,203)" stroke="rgb(222,80,203)" stroke-width="1" opacity="0.7647058823529411" d="M 201.5 172 L 195.5 179 L 188.5 181 L 188.5 180 L 193.5 179 L 201.5 172 Z "></path><path fill="rgb(222,80,203)" stroke="rgb(222,80,203)" stroke-width="1" opacity="0.7647058823529411" d="M 185.5 181 L 186 191 Q 201.2 191.5 210 199.5 L 207.5 198 Q 198.4 192.4 185 192 L 185.5 181 Z "></path><path fill="rgb(222,80,203)" stroke="rgb(222,80,203)" stroke-width="1" opacity="0.7647058823529411" d="M 247.5 188 L 256.5 188 L 257 190 L 253 190 L 253 191.5 L 251.5 194 L 251 191.5 L 252.5 189 Q 246.5 190.2 247.5 188 Z "></path><path fill="rgb(222,80,203)" stroke="rgb(222,80,203)" stroke-width="1" opacity="0.7647058823529411" d="M 167.5 191 L 168 230.5 L 167 230.5 L 167.5 191 Z "></path><path fill="rgb(222,80,203)" stroke="rgb(222,80,203)" stroke-width="1" opacity="0.7647058823529411" d="M 233.5 193 L 234 196.5 L 233 196.5 L 233.5 193 Z "></path><path fill="rgb(222,80,203)" stroke="rgb(222,80,203)" stroke-width="1" opacity="0.7647058823529411" d="M 250.5 195 L 251 197.5 L 250 197.5 L 250.5 195 Z "></path><path fill="rgb(222,80,203)" stroke="rgb(222,80,203)" stroke-width="1" opacity="0.7647058823529411" d="M 211.5 200 L 216 203 L 226 218.5 L 228 227.5 L 227 227.5 L 227 224.5 L 222 212.5 L 211.5 200 Z "></path><path fill="rgb(222,80,203)" stroke="rgb(222,80,203)" stroke-width="1" opacity="0.7647058823529411" d="M 185 205 L 192 205.5 L 186 206 L 186 215.5 L 187 216.5 L 185 215.5 L 185 205 Z "></path><path fill="rgb(222,80,203)" stroke="rgb(222,80,203)" stroke-width="1" opacity="0.7647058823529411" d="M 193.5 206 L 196 206.5 L 193.5 207 L 193.5 206 Z "></path><path fill="rgb(222,80,203)" stroke="rgb(222,80,203)" stroke-width="1" opacity="0.7647058823529411" d="M 199.5 208 L 210 216.5 Q 214.5 221 215 229.5 L 214 229.5 Q 212.4 217.6 204.5 212 L 199.5 209 L 199.5 208 Z "></path><path fill="rgb(222,80,203)" stroke="rgb(222,80,203)" stroke-width="1" opacity="0.7647058823529411" d="M 232.5 208 Q 237 213 238 221.5 L 237 221.5 L 232.5 208 Z "></path><path fill="rgb(222,80,203)" stroke="rgb(222,80,203)" stroke-width="1" opacity="0.7647058823529411" d="M 188.5 216 Q 198.3 217.2 202 224.5 L 204 230.5 L 203 230.5 Q 201.8 222.2 195.5 219 L 188.5 217 L 188.5 216 Z "></path><path fill="rgb(222,80,203)" stroke="rgb(222,80,203)" stroke-width="1" opacity="0.7647058823529411" d="M 215.5 231 L 216 237.5 L 215 237.5 L 215.5 231 Z "></path><path fill="rgb(222,80,203)" stroke="rgb(222,80,203)" stroke-width="1" opacity="0.7647058823529411" d="M 228.5 231 L 229 237.5 L 228 237.5 L 228.5 231 Z "></path><path fill="rgb(222,80,203)" stroke="rgb(222,80,203)" stroke-width="1" opacity="0.7647058823529411" d="M 204.5 232 L 205 237.5 L 204 237.5 L 204.5 232 Z "></path><path fill="rgb(222,80,203)" stroke="rgb(222,80,203)" stroke-width="1" opacity="0.7647058823529411" d="M 132.5 236 L 133 242.5 L 132 242.5 L 132.5 236 Z "></path><path fill="rgb(222,80,203)" stroke="rgb(222,80,203)" stroke-width="1" opacity="0.7647058823529411" d="M 167.5 237 Q 168.9 246.1 175.5 250 L 179 251.5 L 177.5 252 L 170 245.5 L 167 239.5 L 167.5 237 Z "></path><path fill="rgb(222,80,203)" stroke="rgb(222,80,203)" stroke-width="1" opacity="0.7647058823529411" d="M 143.5 238 L 144 242.5 L 143 242.5 L 143.5 238 Z "></path><path fill="rgb(222,80,203)" stroke="rgb(222,80,203)" stroke-width="1" opacity="0.7647058823529411" d="M 203.5 239 L 204 240.5 L 200.5 246 L 201 244.5 L 203.5 239 Z "></path><path fill="rgb(222,80,203)" stroke="rgb(222,80,203)" stroke-width="1" opacity="0.7647058823529411" d="M 214.5 240 L 215 242.5 L 209 255 L 196.5 263 L 189.5 264 L 189.5 263 Q 203.1 261.6 209 252.5 L 214.5 240 Z "></path><path fill="rgb(222,80,203)" stroke="rgb(222,80,203)" stroke-width="1" opacity="0.7647058823529411" d="M 227.5 241 L 228 244.5 L 227 244.5 L 227.5 241 Z "></path><path fill="rgb(222,80,203)" stroke="rgb(222,80,203)" stroke-width="1" opacity="0.7647058823529411" d="M 133.5 244 L 134 247.5 L 133 247.5 L 133.5 244 Z "></path><path fill="rgb(222,80,203)" stroke="rgb(222,80,203)" stroke-width="1" opacity="0.7647058823529411" d="M 144.5 245 L 147 251.5 L 146 251.5 L 144.5 245 Z "></path><path fill="rgb(222,80,203)" stroke="rgb(222,80,203)" stroke-width="1" opacity="0.7647058823529411" d="M 158.5 245 Q 161.3 253.2 167.5 258 L 177 262.5 L 175.5 263 Q 167.5 260.5 163 254.5 L 161 251.5 Q 156.8 249.6 158.5 245 Z "></path><path fill="rgb(222,80,203)" stroke="rgb(222,80,203)" stroke-width="1" opacity="0.7647058823529411" d="M 226.5 246 L 227 247.5 Q 223.3 259.8 214.5 267 L 200.5 275 L 200.5 274 Q 213.1 269.6 220 259.5 Q 224.8 254.3 226.5 246 Z "></path><path fill="rgb(222,80,203)" stroke="rgb(222,80,203)" stroke-width="1" opacity="0.7647058823529411" d="M 198.5 247 L 200 247.5 L 191.5 253 L 188.5 253 L 188.5 252 L 191.5 252 L 198.5 247 Z "></path><path fill="rgb(222,80,203)" stroke="rgb(222,80,203)" stroke-width="1" opacity="0.7647058823529411" d="M 134.5 249 L 135 252.5 L 140 261.5 L 138 262 L 134 252.5 L 134.5 249 Z "></path><path fill="rgb(222,80,203)" stroke="rgb(222,80,203)" stroke-width="1" opacity="0.7647058823529411" d="M 180.5 252 L 187 253.5 L 184.5 254 L 180.5 253 L 180.5 252 Z "></path><path fill="rgb(222,80,203)" stroke="rgb(222,80,203)" stroke-width="1" opacity="0.7647058823529411" d="M 147.5 253 Q 151.1 260.9 157.5 266 L 160.5 268 Q 165.8 273.7 175 275.5 L 172.5 276 Q 159 271 151 260.5 L 147.5 253 Z "></path><path fill="rgb(222,80,203)" stroke="rgb(222,80,203)" stroke-width="1" opacity="0.7647058823529411" d="M 140.5 263 L 150.5 275 L 160 281.5 L 158.5 281 Q 149.1 276.4 143 268.5 L 140.5 263 Z "></path><path fill="rgb(222,80,203)" stroke="rgb(222,80,203)" stroke-width="1" opacity="0.7647058823529411" d="M 178.5 263 L 183 263.5 L 178.5 264 L 178.5 263 Z "></path><path fill="rgb(222,80,203)" stroke="rgb(222,80,203)" stroke-width="1" opacity="0.7647058823529411" d="M 195.5 275 L 199 275.5 L 191.5 277 L 191.5 276 L 195.5 275 Z "></path><path fill="rgb(222,80,203)" stroke="rgb(222,80,203)" stroke-width="1" opacity="0.7647058823529411" d="M 176.5 276 L 180 276.5 L 176.5 277 L 176.5 276 Z "></path><path fill="rgb(222,80,203)" stroke="rgb(222,80,203)" stroke-width="1" opacity="0.7647058823529411" d="M 183.5 277 L 189 277.5 L 183.5 278 L 183.5 277 Z "></path><path fill="rgb(222,80,203)" stroke="rgb(222,80,203)" stroke-width="1" opacity="0.7647058823529411" d="M 161.5 282 L 167 284.5 L 165.5 285 Q 161.5 284.5 161.5 282 Z "></path><path fill="rgb(222,80,203)" stroke="rgb(222,80,203)" stroke-width="1" opacity="0.7647058823529411" d="M 168.5 285 L 179 287.5 L 174.5 288 L 168.5 286 L 168.5 285 Z "></path><path fill="rgb(222,80,203)" stroke="rgb(222,80,203)" stroke-width="1" opacity="0.7647058823529411" d="M 192.5 287 L 196 287.5 L 192.5 288 L 192.5 287 Z "></path><path fill="rgb(222,80,203)" stroke="rgb(222,80,203)" stroke-width="1" opacity="0.7647058823529411" d="M 181.5 288 L 190 288.5 L 181.5 289 L 181.5 288 Z "></path><path fill="rgb(222,80,203)" stroke="rgb(222,80,203)" stroke-width="1" opacity="0.7647058823529411" d="M 116.5 301 L 125 301.5 L 116.5 302 L 116.5 301 Z "></path><path fill="rgb(222,80,203)" stroke="rgb(222,80,203)" stroke-width="1" opacity="0.7647058823529411" d="M 146.5 301 L 155 301.5 L 146.5 302 L 146.5 301 Z "></path><path fill="rgb(222,80,203)" stroke="rgb(222,80,203)" stroke-width="1" opacity="0.7647058823529411" d="M 173.5 301 L 179 301.5 L 173.5 302 L 173.5 301 Z "></path><path fill="rgb(222,80,203)" stroke="rgb(222,80,203)" stroke-width="1" opacity="0.7647058823529411" d="M 180.5 301 L 190.5 319 L 191.5 302 L 192 321.5 L 190 320.5 L 180.5 301 Z "></path><path fill="rgb(222,80,203)" stroke="rgb(222,80,203)" stroke-width="1" opacity="0.7647058823529411" d="M 198.5 301 L 200 302.5 L 200 333 L 190.5 333 L 188 330.5 L 180.5 315 L 180 333 L 172.5 333 L 171 331.5 L 171.5 302 L 172 332 L 179 332 L 179 312.5 L 180 312.5 L 190 332 L 198.5 332 L 199 331.5 L 199 302.5 L 198.5 301 Z "></path><path fill="rgb(222,80,203)" stroke="rgb(222,80,203)" stroke-width="1" opacity="0.7647058823529411" d="M 212.5 301 L 222 301.5 L 212.5 302 L 207 306.5 L 206.5 308 L 206 306.5 L 209.5 302 L 212.5 301 Z "></path><path fill="rgb(222,80,203)" stroke="rgb(222,80,203)" stroke-width="1" opacity="0.7647058823529411" d="M 238.5 301 Q 243.8 299.8 245 302.5 L 245 323.5 L 246 326 L 248 326.5 L 246.5 327 L 244 323.5 L 244 302 L 238.5 302 L 238.5 301 Z "></path><path fill="rgb(222,80,203)" stroke="rgb(222,80,203)" stroke-width="1" opacity="0.7647058823529411" d="M 255.5 301 L 255 302.5 L 254.5 324 L 254 302.5 L 255.5 301 Z "></path><path fill="rgb(222,80,203)" stroke="rgb(222,80,203)" stroke-width="1" opacity="0.7647058823529411" d="M 257.5 301 Q 262 300 263 302.5 L 261.5 302 Q 256.5 303 257.5 301 Z "></path><path fill="rgb(222,80,203)" stroke="rgb(222,80,203)" stroke-width="1" opacity="0.7647058823529411" d="M 310.5 301 Q 314.3 300.3 315 302.5 L 313.5 302 Q 309.5 302.8 310.5 301 Z "></path><path fill="rgb(222,80,203)" stroke="rgb(222,80,203)" stroke-width="1" opacity="0.7647058823529411" d="M 318.5 301 Q 324.5 299.5 326 302.5 L 326 332.5 L 325.5 333 L 318.5 333 L 318.5 332 Q 324.8 332.8 325 331.5 L 325 302 L 318.5 302 L 318.5 301 Z "></path><path fill="rgb(222,80,203)" stroke="rgb(222,80,203)" stroke-width="1" opacity="0.7647058823529411" d="M 334.5 301 L 340 301.5 L 334 302 L 334 331.5 Q 334.3 332.8 340.5 332 L 340.5 333 L 333.5 333 L 333 332.5 L 333 302.5 L 334.5 301 Z "></path><path fill="rgb(222,80,203)" stroke="rgb(222,80,203)" stroke-width="1" opacity="0.7647058823529411" d="M 341.5 301 L 353 321.5 L 352 321.5 L 341.5 301 Z "></path><path fill="rgb(222,80,203)" stroke="rgb(222,80,203)" stroke-width="1" opacity="0.7647058823529411" d="M 354.5 301 L 359 301.5 L 353.5 303 L 354.5 301 Z "></path><path fill="rgb(222,80,203)" stroke="rgb(222,80,203)" stroke-width="1" opacity="0.7647058823529411" d="M 360.5 301 L 361 333 L 351.5 333 L 350 331.5 L 347 324.5 L 349 325.5 L 352.5 332 L 359.5 332 L 360 331.5 L 360.5 301 Z "></path><path fill="rgb(222,80,203)" stroke="rgb(222,80,203)" stroke-width="1" opacity="0.7647058823529411" d="M 377.5 301 Q 389.4 299.5 395 303 Q 396.8 309.1 393.5 311 Q 390 307 381.5 308 L 377 310 L 375 318.5 L 376 322.5 L 378.5 325 L 384.5 327 L 387 326 L 387 322 L 383 322 L 383 320.5 L 382 318.5 L 383 315 L 396 315 L 396 331 L 387.5 334 L 378.5 334 Q 370.6 331.9 367 325.5 L 366 323.5 L 366 311.5 L 371.5 304 L 377.5 301 Z "></path><path fill="rgb(222,80,203)" stroke="rgb(222,80,203)" stroke-width="1" opacity="0.7647058823529411" d="M 142.5 302 L 145 302.5 L 142.5 303 L 137 308.5 Q 134.1 313.1 134.5 321 L 134 313.5 L 139.5 304 L 142.5 302 Z "></path><path fill="rgb(222,80,203)" stroke="rgb(222,80,203)" stroke-width="1" opacity="0.7647058823529411" d="M 156.5 302 L 162 304 L 162 306 Q 164.7 304.9 164 307.5 Q 166.6 308.9 166 313.5 L 165 313.5 Q 164.6 305.4 158.5 303 Q 155.5 303.5 156.5 302 Z "></path><path fill="rgb(222,80,203)" stroke="rgb(222,80,203)" stroke-width="1" opacity="0.7647058823529411" d="M 224.5 302 L 228 302 L 228 310 L 226 309.5 L 227 303 Q 223.7 303.8 224.5 302 Z "></path><path fill="rgb(222,80,203)" stroke="rgb(222,80,203)" stroke-width="1" opacity="0.7647058823529411" d="M 236.5 302 L 237 324.5 L 236 324.5 L 236.5 302 Z "></path><path fill="rgb(222,80,203)" stroke="rgb(222,80,203)" stroke-width="1" opacity="0.7647058823529411" d="M 111.5 303 L 106 309.5 Q 103.8 314.3 105 322.5 L 111.5 331 L 116 332.5 L 113.5 333 L 108 330 L 104 322.5 L 104 311.5 L 109.5 304 L 111.5 303 Z "></path><path fill="rgb(222,80,203)" stroke="rgb(222,80,203)" stroke-width="1" opacity="0.7647058823529411" d="M 129.5 303 L 131 303.5 L 131 310 L 124.5 308 L 119.5 308 L 115 310.5 Q 112.4 313.4 113 319.5 L 117.5 326 L 119 326.5 L 117.5 327 L 114 325 L 112 319.5 L 112 315.5 L 116.5 308 L 124.5 307 L 130 309 L 129.5 303 Z "></path><path fill="rgb(222,80,203)" stroke="rgb(222,80,203)" stroke-width="1" opacity="0.7647058823529411" d="M 148.5 307 Q 155.4 306.1 157 310.5 L 158 314.5 L 157 314.5 L 156 310 L 152.5 308 L 148.5 308 L 145 310.5 L 143.5 316 L 143 312.5 L 146.5 308 L 148.5 307 Z "></path><path fill="rgb(222,80,203)" stroke="rgb(222,80,203)" stroke-width="1" opacity="0.7647058823529411" d="M 215.5 307 L 221 307.5 Q 215.6 306.6 214 309.5 L 215 312.5 L 213 311.5 Q 211.5 307.1 214.5 308 L 215.5 307 Z "></path><path fill="rgb(222,80,203)" stroke="rgb(222,80,203)" stroke-width="1" opacity="0.7647058823529411" d="M 314.5 307 L 315 309 L 304 308.5 L 313.5 308 L 314.5 307 Z "></path><path fill="rgb(222,80,203)" stroke="rgb(222,80,203)" stroke-width="1" opacity="0.7647058823529411" d="M 222.5 308 L 225 308.5 L 222.5 309 L 222.5 308 Z "></path><path fill="rgb(222,80,203)" stroke="rgb(222,80,203)" stroke-width="1" opacity="0.7647058823529411" d="M 286.5 308 L 296 308.5 L 286.5 309 L 286.5 308 Z "></path><path fill="rgb(222,80,203)" stroke="rgb(222,80,203)" stroke-width="1" opacity="0.7647058823529411" d="M 216.5 313 Q 225 313 229 317.5 Q 231.3 320.7 230 327.5 L 226.5 332 Q 222.1 335.1 213.5 334 L 206 331.5 L 208.5 331 Q 212.9 334.1 221.5 333 L 229 327.5 Q 230 320 228 317 L 220.5 314 L 216.5 314 L 216.5 313 Z "></path><path fill="rgb(222,80,203)" stroke="rgb(222,80,203)" stroke-width="1" opacity="0.7647058823529411" d="M 341.5 313 L 347 322.5 L 345 321.5 L 341 314.5 L 341.5 313 Z "></path><path fill="rgb(222,80,203)" stroke="rgb(222,80,203)" stroke-width="1" opacity="0.7647058823529411" d="M 206.5 314 L 209.5 318 Q 212.4 320.6 218.5 320 L 222 322.5 L 220.5 322 L 211.5 320 L 206 315.5 L 206.5 314 Z "></path><path fill="rgb(222,80,203)" stroke="rgb(222,80,203)" stroke-width="1" opacity="0.7647058823529411" d="M 262.5 318 L 263 324.5 L 262 324.5 L 262.5 318 Z "></path><path fill="rgb(222,80,203)" stroke="rgb(222,80,203)" stroke-width="1" opacity="0.7647058823529411" d="M 143.5 319 Q 143.5 325 148 326.5 L 146.5 326 L 144 324.5 L 143.5 319 Z "></path><path fill="rgb(222,80,203)" stroke="rgb(222,80,203)" stroke-width="1" opacity="0.7647058823529411" d="M 157.5 320 L 158 321.5 L 156 326 L 153.5 327 L 156 323.5 L 157.5 320 Z "></path><path fill="rgb(222,80,203)" stroke="rgb(222,80,203)" stroke-width="1" opacity="0.7647058823529411" d="M 165.5 321 L 166 324.5 L 159.5 332 L 158 331.5 L 163 327.5 L 165.5 321 Z "></path><path fill="rgb(222,80,203)" stroke="rgb(222,80,203)" stroke-width="1" opacity="0.7647058823529411" d="M 135.5 322 Q 136.6 328.4 141.5 331 Q 146.1 333.9 154 333.5 L 146.5 334 L 138 330 L 135 324.5 L 135.5 322 Z "></path><path fill="rgb(222,80,203)" stroke="rgb(222,80,203)" stroke-width="1" opacity="0.7647058823529411" d="M 129.5 324 Q 132.5 323.5 131 330.5 Q 127.2 335.2 117.5 334 L 117.5 333 Q 126.1 333.9 130 331 L 129.5 325 L 125.5 327 L 125.5 326 L 129.5 324 Z "></path><path fill="rgb(222,80,203)" stroke="rgb(222,80,203)" stroke-width="1" opacity="0.7647058823529411" d="M 206.5 324 L 213 326.5 L 211.5 327 L 206.5 325 L 206.5 324 Z "></path><path fill="rgb(222,80,203)" stroke="rgb(222,80,203)" stroke-width="1" opacity="0.7647058823529411" d="M 221.5 325 L 220.5 327 L 216.5 328 L 216.5 327 L 221.5 325 Z "></path><path fill="rgb(222,80,203)" stroke="rgb(222,80,203)" stroke-width="1" opacity="0.7647058823529411" d="M 252.5 325 L 254 325.5 L 251.5 327 L 252.5 325 Z "></path><path fill="rgb(222,80,203)" stroke="rgb(222,80,203)" stroke-width="1" opacity="0.7647058823529411" d="M 237.5 326 L 242 331.5 L 239.5 330 Q 237.3 330.8 238 328.5 L 237.5 326 Z "></path><path fill="rgb(222,80,203)" stroke="rgb(222,80,203)" stroke-width="1" opacity="0.7647058823529411" d="M 261.5 326 L 262 327.5 L 258.5 332 Q 254.1 335.1 245.5 334 L 243 332.5 L 244.5 332 L 245.5 333 L 253.5 333 L 261 327.5 L 261.5 326 Z "></path><path fill="rgb(222,80,203)" stroke="rgb(222,80,203)" stroke-width="1" opacity="0.7647058823529411" d="M 278.5 326 L 292 326 L 292 333 L 270 332.5 L 291 332 L 291 327 L 278.5 327 L 278.5 326 Z "></path><path fill="rgb(222,80,203)" stroke="rgb(222,80,203)" stroke-width="1" opacity="0.7647058823529411" d="M 296.5 332 L 304 332.5 L 296.5 333 L 296.5 332 Z "></path></svg>